<svg xmlns="http://www.w3.org/2000/svg" version="1.1" xmlns:xlink="http://www.w3.org/1999/xlink" xmlns:svgjs="http://svgjs.dev/svgjs" viewBox="0 0 800 800"><g fill="none" stroke-width="3" stroke="hsl(180, 69%, 30%)" stroke-linecap="square"><line x1="159" y1="400" x2="641" y2="400" transform="rotate(0, 400, 400)" opacity="0.40"></line><line x1="664.5" y1="400" x2="135.5" y2="400" transform="rotate(4, 400, 400)" opacity="0.86"></line><line x1="292.5" y1="400" x2="507.5" y2="400" transform="rotate(8, 400, 400)" opacity="0.55"></line><line x1="203" y1="400" x2="597" y2="400" transform="rotate(12, 400, 400)" opacity="0.15"></line><line x1="341.5" y1="400" x2="458.5" y2="400" transform="rotate(16, 400, 400)" opacity="0.16"></line><line x1="398.5" y1="400" x2="401.5" y2="400" transform="rotate(20, 400, 400)" opacity="0.65"></line><line x1="267" y1="400" x2="533" y2="400" transform="rotate(24, 400, 400)" opacity="0.44"></line><line x1="594" y1="400" x2="206" y2="400" transform="rotate(28, 400, 400)" opacity="0.93"></line><line x1="694" y1="400" x2="106" y2="400" transform="rotate(32, 400, 400)" opacity="0.50"></line><line x1="255" y1="400" x2="545" y2="400" transform="rotate(36, 400, 400)" opacity="0.34"></line><line x1="307" y1="400" x2="493" y2="400" transform="rotate(40, 400, 400)" opacity="0.28"></line><line x1="132" y1="400" x2="668" y2="400" transform="rotate(44, 400, 400)" opacity="0.66"></line><line x1="354" y1="400" x2="446" y2="400" transform="rotate(48, 400, 400)" opacity="0.80"></line><line x1="460" y1="400" x2="340" y2="400" transform="rotate(52, 400, 400)" opacity="0.37"></line><line x1="41.5" y1="400" x2="758.5" y2="400" transform="rotate(56, 400, 400)" opacity="0.09"></line><line x1="151" y1="400" x2="649" y2="400" transform="rotate(60, 400, 400)" opacity="0.34"></line><line x1="703.5" y1="400" x2="96.5" y2="400" transform="rotate(64, 400, 400)" opacity="0.46"></line><line x1="296" y1="400" x2="504" y2="400" transform="rotate(68, 400, 400)" opacity="0.45"></line><line x1="350.5" y1="400" x2="449.5" y2="400" transform="rotate(72, 400, 400)" opacity="0.62"></line><line x1="303.5" y1="400" x2="496.5" y2="400" transform="rotate(76, 400, 400)" opacity="0.30"></line><line x1="662.5" y1="400" x2="137.5" y2="400" transform="rotate(80, 400, 400)" opacity="0.55"></line><line x1="337.5" y1="400" x2="462.5" y2="400" transform="rotate(84, 400, 400)" opacity="0.59"></line><line x1="634" y1="400" x2="166" y2="400" transform="rotate(88, 400, 400)" opacity="0.94"></line><line x1="44" y1="400" x2="756" y2="400" transform="rotate(92, 400, 400)" opacity="0.47"></line><line x1="476.5" y1="400" x2="323.5" y2="400" transform="rotate(96, 400, 400)" opacity="0.77"></line><line x1="35" y1="400" x2="765" y2="400" transform="rotate(100, 400, 400)" opacity="0.16"></line><line x1="229" y1="400" x2="571" y2="400" transform="rotate(104, 400, 400)" opacity="0.82"></line><line x1="251" y1="400" x2="549" y2="400" transform="rotate(108, 400, 400)" opacity="0.37"></line><line x1="277.5" y1="400" x2="522.5" y2="400" transform="rotate(112, 400, 400)" opacity="0.92"></line><line x1="637.5" y1="400" x2="162.5" y2="400" transform="rotate(116, 400, 400)" opacity="0.80"></line><line x1="264.5" y1="400" x2="535.5" y2="400" transform="rotate(120, 400, 400)" opacity="0.89"></line><line x1="498.5" y1="400" x2="301.5" y2="400" transform="rotate(124, 400, 400)" opacity="0.61"></line><line x1="192.5" y1="400" x2="607.5" y2="400" transform="rotate(128, 400, 400)" opacity="0.82"></line><line x1="594" y1="400" x2="206" y2="400" transform="rotate(132, 400, 400)" opacity="0.13"></line><line x1="667.5" y1="400" x2="132.5" y2="400" transform="rotate(136, 400, 400)" opacity="0.85"></line><line x1="463.5" y1="400" x2="336.5" y2="400" transform="rotate(140, 400, 400)" opacity="0.48"></line><line x1="434" y1="400" x2="366" y2="400" transform="rotate(144, 400, 400)" opacity="0.43"></line><line x1="117.5" y1="400" x2="682.5" y2="400" transform="rotate(148, 400, 400)" opacity="0.92"></line><line x1="100" y1="400" x2="700" y2="400" transform="rotate(152, 400, 400)" opacity="0.25"></line><line x1="387" y1="400" x2="413" y2="400" transform="rotate(156, 400, 400)" opacity="0.55"></line><line x1="370.5" y1="400" x2="429.5" y2="400" transform="rotate(160, 400, 400)" opacity="0.56"></line><line x1="88" y1="400" x2="712" y2="400" transform="rotate(164, 400, 400)" opacity="0.90"></line><line x1="479" y1="400" x2="321" y2="400" transform="rotate(168, 400, 400)" opacity="0.49"></line><line x1="266.5" y1="400" x2="533.5" y2="400" transform="rotate(172, 400, 400)" opacity="0.58"></line><line x1="717.5" y1="400" x2="82.5" y2="400" transform="rotate(176, 400, 400)" opacity="0.53"></line><line x1="621.5" y1="400" x2="178.5" y2="400" transform="rotate(180, 400, 400)" opacity="0.88"></line><line x1="535" y1="400" x2="265" y2="400" transform="rotate(184, 400, 400)" opacity="0.97"></line><line x1="104.5" y1="400" x2="695.5" y2="400" transform="rotate(188, 400, 400)" opacity="0.87"></line><line x1="655.5" y1="400" x2="144.5" y2="400" transform="rotate(192, 400, 400)" opacity="0.39"></line><line x1="491.5" y1="400" x2="308.5" y2="400" transform="rotate(196, 400, 400)" opacity="0.61"></line><line x1="353" y1="400" x2="447" y2="400" transform="rotate(200, 400, 400)" opacity="0.58"></line><line x1="628.5" y1="400" x2="171.5" y2="400" transform="rotate(204, 400, 400)" opacity="0.54"></line><line x1="321" y1="400" x2="479" y2="400" transform="rotate(208, 400, 400)" opacity="0.12"></line><line x1="95" y1="400" x2="705" y2="400" transform="rotate(212, 400, 400)" opacity="0.31"></line><line x1="272.5" y1="400" x2="527.5" y2="400" transform="rotate(216, 400, 400)" opacity="0.61"></line><line x1="349.5" y1="400" x2="450.5" y2="400" transform="rotate(220, 400, 400)" opacity="0.33"></line><line x1="47" y1="400" x2="753" y2="400" transform="rotate(224, 400, 400)" opacity="0.59"></line><line x1="574.5" y1="400" x2="225.5" y2="400" transform="rotate(228, 400, 400)" opacity="0.75"></line><line x1="191" y1="400" x2="609" y2="400" transform="rotate(232, 400, 400)" opacity="0.22"></line><line x1="335.5" y1="400" x2="464.5" y2="400" transform="rotate(236, 400, 400)" opacity="0.45"></line><line x1="323.5" y1="400" x2="476.5" y2="400" transform="rotate(240, 400, 400)" opacity="0.58"></line><line x1="378.5" y1="400" x2="421.5" y2="400" transform="rotate(244, 400, 400)" opacity="0.26"></line><line x1="114" y1="400" x2="686" y2="400" transform="rotate(248, 400, 400)" opacity="0.52"></line><line x1="45" y1="400" x2="755" y2="400" transform="rotate(252, 400, 400)" opacity="0.08"></line><line x1="182" y1="400" x2="618" y2="400" transform="rotate(256, 400, 400)" opacity="0.50"></line><line x1="540" y1="400" x2="260" y2="400" transform="rotate(260, 400, 400)" opacity="0.78"></line><line x1="725" y1="400" x2="75" y2="400" transform="rotate(264, 400, 400)" opacity="0.40"></line><line x1="382.5" y1="400" x2="417.5" y2="400" transform="rotate(268, 400, 400)" opacity="0.12"></line><line x1="548.5" y1="400" x2="251.5" y2="400" transform="rotate(272, 400, 400)" opacity="0.43"></line><line x1="465.5" y1="400" x2="334.5" y2="400" transform="rotate(276, 400, 400)" opacity="0.59"></line><line x1="59" y1="400" x2="741" y2="400" transform="rotate(280, 400, 400)" opacity="0.64"></line><line x1="131" y1="400" x2="669" y2="400" transform="rotate(284, 400, 400)" opacity="0.11"></line><line x1="468.5" y1="400" x2="331.5" y2="400" transform="rotate(288, 400, 400)" opacity="0.87"></line><line x1="726" y1="400" x2="74" y2="400" transform="rotate(292, 400, 400)" opacity="0.59"></line><line x1="561" y1="400" x2="239" y2="400" transform="rotate(296, 400, 400)" opacity="0.07"></line><line x1="624.5" y1="400" x2="175.5" y2="400" transform="rotate(300, 400, 400)" opacity="0.92"></line><line x1="714" y1="400" x2="86" y2="400" transform="rotate(304, 400, 400)" opacity="0.33"></line><line x1="513.5" y1="400" x2="286.5" y2="400" transform="rotate(308, 400, 400)" opacity="0.17"></line><line x1="454" y1="400" x2="346" y2="400" transform="rotate(312, 400, 400)" opacity="0.51"></line><line x1="585.5" y1="400" x2="214.5" y2="400" transform="rotate(316, 400, 400)" opacity="0.59"></line><line x1="366.5" y1="400" x2="433.5" y2="400" transform="rotate(320, 400, 400)" opacity="0.28"></line><line x1="237" y1="400" x2="563" y2="400" transform="rotate(324, 400, 400)" opacity="0.65"></line><line x1="213.5" y1="400" x2="586.5" y2="400" transform="rotate(328, 400, 400)" opacity="0.56"></line><line x1="596" y1="400" x2="204" y2="400" transform="rotate(332, 400, 400)" opacity="0.37"></line><line x1="219.5" y1="400" x2="580.5" y2="400" transform="rotate(336, 400, 400)" opacity="0.38"></line><line x1="459" y1="400" x2="341" y2="400" transform="rotate(340, 400, 400)" opacity="0.83"></line><line x1="462.5" y1="400" x2="337.5" y2="400" transform="rotate(344, 400, 400)" opacity="0.77"></line><line x1="446" y1="400" x2="354" y2="400" transform="rotate(348, 400, 400)" opacity="0.85"></line></g></svg>